<svg xmlns="http://www.w3.org/2000/svg" width="18" height="12" viewBox="0 0 18 12" fill="none">
<path d="M8.99951 11.3955C14.084 11.3955 17.6006 7.28223 17.6006 6C17.6006 4.71143 14.0776 0.604492 8.99951 0.604492C3.97852 0.604492 0.39209 4.71143 0.39209 6C0.39209 7.28223 3.97852 11.3955 8.99951 11.3955ZM8.99951 9.53564C7.01904 9.53564 5.45117 7.92969 5.44482 6C5.43848 4.01953 7.01904 2.46436 8.99951 2.46436C10.9609 2.46436 12.5479 4.01953 12.5479 6C12.5479 7.92969 10.9609 9.53564 8.99951 9.53564ZM8.99951 7.27588C9.7041 7.27588 10.2881 6.69824 10.2881 6C10.2881 5.29541 9.7041 4.71777 8.99951 4.71777C8.28857 4.71777 7.70459 5.29541 7.70459 6C7.70459 6.69824 8.28857 7.27588 8.99951 7.27588Z" fill="#1471FF"/>
</svg>
