<svg width="208" height="140" viewBox="0 0 208 140" fill="none" xmlns="http://www.w3.org/2000/svg">
<rect x="36" y="2" width="116" height="83" rx="18" fill="#F8ECEC" stroke="#FF8686" stroke-width="4"/>
<rect x="90" y="55" width="116" height="83" rx="18" fill="#EEECF8" stroke="#CA86FF" stroke-width="4"/>
<path d="M36.5 39.5C37.6046 39.5 38.5 38.6046 38.5 37.5C38.5 36.3954 37.6046 35.5 36.5 35.5V39.5ZM74.4142 116.914C75.1953 116.133 75.1953 114.867 74.4142 114.086L61.6863 101.358C60.9052 100.577 59.6389 100.577 58.8579 101.358C58.0768 102.139 58.0768 103.405 58.8579 104.186L70.1716 115.5L58.8579 126.814C58.0768 127.595 58.0768 128.861 58.8579 129.642C59.6389 130.423 60.9052 130.423 61.6863 129.642L74.4142 116.914ZM3.08993 110.04L1.30792 110.948L3.08993 110.04ZM7.46009 114.41L6.55211 116.192L7.46009 114.41ZM7.46009 38.5899L8.36808 40.3719L7.46009 38.5899ZM36.5 35.5H18V39.5H36.5V35.5ZM0 53.5V99.5H4V53.5H0ZM18 117.5H73V113.5H18V117.5ZM0 99.5C0 102.267 -0.00155541 104.463 0.142884 106.231C0.289231 108.022 0.595353 109.549 1.30792 110.948L4.87195 109.132C4.49458 108.391 4.25574 107.449 4.1296 105.905C4.00156 104.338 4 102.333 4 99.5H0ZM18 113.5C15.1667 113.5 13.1621 113.498 11.5949 113.37C10.051 113.244 9.1087 113.005 8.36808 112.628L6.55211 116.192C7.95061 116.905 9.47795 117.211 11.2692 117.357C13.037 117.502 15.2327 117.5 18 117.5V113.5ZM1.30792 110.948C2.4584 113.206 4.29417 115.042 6.55211 116.192L8.36808 112.628C6.86278 111.861 5.63893 110.637 4.87195 109.132L1.30792 110.948ZM18 35.5C15.2327 35.5 13.037 35.4984 11.2692 35.6429C9.47795 35.7892 7.95061 36.0954 6.55211 36.8079L8.36808 40.3719C9.1087 39.9946 10.051 39.7557 11.5949 39.6296C13.1621 39.5016 15.1667 39.5 18 39.5V35.5ZM4 53.5C4 50.6667 4.00156 48.6621 4.1296 47.0949C4.25574 45.551 4.49458 44.6087 4.87195 43.8681L1.30792 42.0521C0.595353 43.4506 0.289231 44.978 0.142884 46.7692C-0.00155541 48.537 0 50.7327 0 53.5H4ZM6.55211 36.8079C4.29417 37.9584 2.4584 39.7942 1.30792 42.0521L4.87195 43.8681C5.63893 42.3628 6.86278 41.1389 8.36808 40.3719L6.55211 36.8079Z" fill="#45A6FF"/>
<circle cx="35.5" cy="37.5" r="10.5" fill="white" stroke="#45A6FF" stroke-width="4"/>
</svg>
