<svg width="14" height="14" viewBox="0 0 14 14" fill="none" xmlns="http://www.w3.org/2000/svg">
<path d="M6.99997 6.22889C10.4228 6.22889 13.1976 5.18835 13.1976 3.90479V7.00359C13.1976 8.28715 10.4228 9.32769 6.99997 9.32769C3.57713 9.32769 0.802368 8.28715 0.802368 7.00359V3.90479C0.802368 5.18835 3.57713 6.22889 6.99997 6.22889Z" fill="#505050"/>
<path d="M6.99997 10.8773C10.4228 10.8773 13.1976 9.83679 13.1976 8.55322V11.652C13.1976 12.9356 10.4228 13.9761 6.99997 13.9761C3.57713 13.9761 0.802368 12.9356 0.802368 11.652V8.55322C0.802368 9.83679 3.57713 10.8773 6.99997 10.8773Z" fill="#505050"/>
<ellipse cx="7.0001" cy="2.40607" rx="6.06333" ry="2.27375" fill="#505050"/>
</svg>
