<svg width="12" height="14" viewBox="0 0 12 14" fill="none" xmlns="http://www.w3.org/2000/svg">
<path d="M10.2467 12.3531L10.6451 3.90979H11.2897C11.5826 3.90979 11.8112 3.68127 11.8112 3.38831C11.8112 3.1012 11.5826 2.87268 11.2897 2.87268H8.68811V2.07581C8.68811 1.17346 8.06702 0.593384 7.06506 0.593384H4.97327C3.97717 0.593384 3.35608 1.17346 3.35608 2.07581V2.87268H0.760376C0.473267 2.87268 0.238892 3.1012 0.238892 3.38831C0.238892 3.68127 0.473267 3.90979 0.760376 3.90979H1.41077L1.80334 12.3531C1.85022 13.2614 2.42444 13.8004 3.3385 13.8004H8.72327C9.62561 13.8004 10.2057 13.2555 10.2467 12.3531ZM4.45764 2.12854C4.4635 1.80627 4.69788 1.57776 5.04358 1.57776H7.00061C7.34631 1.57776 7.58655 1.80627 7.58655 2.12854L7.59241 2.87268H4.45764V2.12854ZM3.45569 12.7516C3.13342 12.7516 2.89905 12.5114 2.88147 12.1656L2.48889 3.90979H9.54944L9.17444 12.1656C9.15686 12.5172 8.92834 12.7516 8.59436 12.7516H3.45569ZM7.75647 11.7906C7.97327 11.7906 8.13147 11.609 8.14319 11.3629L8.31897 5.35706C8.32483 5.11096 8.15491 4.92346 7.93811 4.92346C7.72717 4.92346 7.55139 5.11682 7.54553 5.3512L7.36975 11.3512C7.36389 11.5973 7.52795 11.7906 7.75647 11.7906ZM4.29944 11.7906C4.52209 11.7906 4.69202 11.5973 4.68616 11.3512L4.51038 5.3512C4.49866 5.11682 4.32288 4.92346 4.1178 4.92346C3.89514 4.92346 3.73108 5.11096 3.73694 5.35706L3.91272 11.3629C3.91858 11.609 4.08264 11.7906 4.29944 11.7906ZM6.02795 11.7906C6.23889 11.7906 6.42053 11.5973 6.42053 11.3629V5.3512C6.42053 5.11682 6.24475 4.92346 6.02795 4.92346C5.81116 4.92346 5.63538 5.11682 5.63538 5.3512V11.3629C5.63538 11.5973 5.81116 11.7906 6.02795 11.7906Z" fill="#FF4242"/>
</svg>
