<svg xmlns="http://www.w3.org/2000/svg" width="18" height="12" viewBox="0 0 18 12" fill="none">
<path d="M13.9358 11.6445C14.1262 11.8413 14.4309 11.854 14.6277 11.6445C14.8308 11.4351 14.8181 11.1494 14.6277 10.9526L4.0144 0.345703C3.82397 0.155273 3.50659 0.155273 3.31616 0.345703C3.13208 0.529785 3.13208 0.853516 3.31616 1.0376L13.9358 11.6445ZM14.5388 9.81006C16.3923 8.58496 17.6047 6.90283 17.6047 6.14746C17.6047 4.85889 14.0818 0.751953 9.00366 0.751953C7.92456 0.751953 6.90894 0.936035 5.98853 1.24072L7.63892 2.89111C8.05786 2.71338 8.51489 2.61182 9.00366 2.61182C10.9651 2.61182 12.552 4.16699 12.552 6.14746C12.552 6.62988 12.4441 7.09326 12.2537 7.49951L14.5388 9.81006ZM9.00366 11.543C10.178 11.543 11.2698 11.3271 12.2283 10.9717L10.5652 9.30859C10.0955 9.5498 9.56226 9.68311 9.00366 9.68311C7.02319 9.68311 5.45532 8.07715 5.44897 6.14746C5.44897 5.57617 5.58228 5.03662 5.81714 4.56055L3.64624 2.37695C1.64673 3.62744 0.39624 5.38574 0.39624 6.14746C0.39624 7.42969 3.98267 11.543 9.00366 11.543ZM11.0222 6.01416C11.0222 4.90332 10.1272 4.00195 9.00366 4.00195C8.92114 4.00195 8.83862 4.0083 8.76245 4.01465L11.0095 6.26172C11.0159 6.18555 11.0222 6.09668 11.0222 6.01416ZM6.97876 6.00146C6.97876 7.11865 7.89917 8.02002 9.01001 8.02002C9.09888 8.02002 9.1814 8.01367 9.27026 8.00732L6.99146 5.72852C6.98511 5.81738 6.97876 5.9126 6.97876 6.00146Z" fill="#505050"/>
</svg>
