<svg width="19" height="19" viewBox="0 0 19 19" fill="none" xmlns="http://www.w3.org/2000/svg">
<path d="M1.0898 8.12806C1.59442 8.12806 1.95622 7.74721 1.95622 7.2426V6.44283L1.7658 3.11999L4.26983 5.75732L7.20231 8.70884C7.36417 8.88022 7.57363 8.95639 7.80213 8.95639C8.34483 8.95639 8.74472 8.60411 8.74472 8.07093C8.74472 7.81386 8.65903 7.58536 8.48765 7.41398L5.54565 4.4815L2.90832 1.97747L6.24068 2.16789H7.03093C7.53555 2.16789 7.92591 1.81561 7.92591 1.30147C7.92591 0.787337 7.54507 0.425537 7.03093 0.425537H1.74675C0.775608 0.425537 0.213867 0.987278 0.213867 1.95842V7.2426C0.213867 7.73769 0.585188 8.12806 1.0898 8.12806ZM11.5344 18.5917H16.8186C17.7897 18.5917 18.361 18.0299 18.361 17.0588V11.7746C18.361 11.2795 17.9896 10.8892 17.4755 10.8892C16.9804 10.8892 16.6091 11.27 16.6091 11.7746V12.5744L16.809 15.8972L14.2955 13.2599L11.3725 10.3084C11.2107 10.137 10.9917 10.0608 10.7632 10.0608C10.23 10.0608 9.82059 10.4131 9.82059 10.9463C9.82059 11.2034 9.9158 11.4319 10.0872 11.6032L13.0197 14.5357L15.6665 17.0397L12.3341 16.8493H11.5344C11.0298 16.8493 10.6394 17.2016 10.6394 17.7157C10.6394 18.2299 11.0298 18.5917 11.5344 18.5917Z" fill="#ABABAB"/>
</svg>
