<svg width="14" height="17" viewBox="0 0 14 17" fill="none" xmlns="http://www.w3.org/2000/svg">
<path d="M3.0105 16.5175H10.8181C12.3928 16.5175 13.2058 15.6825 13.2058 14.1005V7.4574C13.2058 6.43201 13.074 5.96326 12.4368 5.3114L8.6062 1.42224C7.98364 0.792358 7.47095 0.645874 6.5481 0.645874H3.0105C1.44312 0.645874 0.622803 1.47351 0.622803 3.05554V14.1005C0.622803 15.6898 1.44312 16.5175 3.0105 16.5175ZM3.13501 15.0526C2.43188 15.0526 2.08032 14.6864 2.08032 14.0052V3.15076C2.08032 2.48425 2.43188 2.10339 3.14233 2.10339H6.2478V6.09509C6.2478 7.1571 6.76782 7.6698 7.82251 7.6698H11.7483V14.0052C11.7483 14.6864 11.3967 15.0526 10.6863 15.0526H3.13501ZM7.96167 6.38806C7.65405 6.38806 7.52222 6.25623 7.52222 5.95593V2.30115L11.5505 6.38806H7.96167ZM9.49243 9.58142H4.19702C3.92603 9.58142 3.72827 9.77917 3.72827 10.0355C3.72827 10.2992 3.92603 10.5043 4.19702 10.5043H9.49243C9.7561 10.5043 9.95386 10.2992 9.95386 10.0355C9.95386 9.77917 9.7561 9.58142 9.49243 9.58142ZM9.49243 12.0277H4.19702C3.92603 12.0277 3.72827 12.2328 3.72827 12.4965C3.72827 12.7528 3.92603 12.9506 4.19702 12.9506H9.49243C9.7561 12.9506 9.95386 12.7528 9.95386 12.4965C9.95386 12.2328 9.7561 12.0277 9.49243 12.0277Z" fill="#ababab"/>
</svg>
