<svg width="13" height="17" viewBox="0 0 13 17" fill="none" xmlns="http://www.w3.org/2000/svg">
<path d="M2.71069 16.731H10.5183C12.093 16.731 12.906 15.896 12.906 14.314V7.6709C12.906 6.64551 12.7742 6.17676 12.137 5.5249L8.3064 1.63574C7.68384 1.00586 7.17114 0.859375 6.24829 0.859375H2.71069C1.14331 0.859375 0.322998 1.68701 0.322998 3.26904V14.314C0.322998 15.9033 1.14331 16.731 2.71069 16.731ZM2.83521 15.2661C2.13208 15.2661 1.78052 14.8999 1.78052 14.2188V3.36426C1.78052 2.69775 2.13208 2.31689 2.84253 2.31689H5.948V6.30859C5.948 7.37061 6.46802 7.8833 7.52271 7.8833H11.4485V14.2188C11.4485 14.8999 11.0969 15.2661 10.3865 15.2661H2.83521ZM7.66187 6.60156C7.35425 6.60156 7.22241 6.46973 7.22241 6.16943V2.51465L11.2507 6.60156H7.66187ZM9.19263 9.79492H3.89722C3.62622 9.79492 3.42847 9.99268 3.42847 10.249C3.42847 10.5127 3.62622 10.7178 3.89722 10.7178H9.19263C9.4563 10.7178 9.65405 10.5127 9.65405 10.249C9.65405 9.99268 9.4563 9.79492 9.19263 9.79492ZM9.19263 12.2412H3.89722C3.62622 12.2412 3.42847 12.4463 3.42847 12.71C3.42847 12.9663 3.62622 13.1641 3.89722 13.1641H9.19263C9.4563 13.1641 9.65405 12.9663 9.65405 12.71C9.65405 12.4463 9.4563 12.2412 9.19263 12.2412Z" fill="white"/>
</svg>
