<svg width="18" height="15" viewBox="0 0 18 15" fill="none" xmlns="http://www.w3.org/2000/svg">
<path d="M3.03247 14.2766H15.3738C16.78 14.2766 17.6077 13.4563 17.6077 11.8889V4.16919C17.6077 2.60181 16.78 1.78149 15.198 1.78149H8.31323C7.78589 1.78149 7.47095 1.65698 7.06079 1.32007L6.64331 0.983154C6.13062 0.565674 5.74976 0.419189 4.98071 0.419189H2.81274C1.43579 0.419189 0.622803 1.22485 0.622803 2.77026V11.8889C0.622803 13.4563 1.45044 14.2766 3.03247 14.2766ZM2.08032 2.9021C2.08032 2.22827 2.45386 1.87671 3.10571 1.87671H4.59253C5.11255 1.87671 5.42017 2.00122 5.83032 2.33813L6.2478 2.68237C6.7605 3.09253 7.15601 3.23901 7.92505 3.23901H15.1028C15.7693 3.23901 16.1428 3.59058 16.1428 4.2937V4.74048H2.08032V2.9021ZM3.12769 12.8191C2.45386 12.8191 2.08032 12.4675 2.08032 11.7571V6.02222H16.1428V11.7644C16.1428 12.4675 15.7693 12.8191 15.1028 12.8191H3.12769Z" fill="#ABABAB"/>
</svg>
