<svg width="18" height="15" viewBox="0 0 18 15" fill="none" xmlns="http://www.w3.org/2000/svg">
<path d="M2.73267 14.2766H15.074C16.4802 14.2766 17.3079 13.4563 17.3079 11.8889V4.16919C17.3079 2.60181 16.4802 1.78149 14.8982 1.78149H8.01343C7.48608 1.78149 7.17114 1.65698 6.76099 1.32007L6.34351 0.983154C5.83081 0.565674 5.44995 0.419189 4.68091 0.419189H2.51294C1.13599 0.419189 0.322998 1.22485 0.322998 2.77026V11.8889C0.322998 13.4563 1.15063 14.2766 2.73267 14.2766ZM1.78052 2.9021C1.78052 2.22827 2.15405 1.87671 2.80591 1.87671H4.29272C4.81274 1.87671 5.12036 2.00122 5.53052 2.33813L5.948 2.68237C6.46069 3.09253 6.8562 3.23901 7.62524 3.23901H14.803C15.4695 3.23901 15.843 3.59058 15.843 4.2937V4.74048H1.78052V2.9021ZM2.82788 12.8191C2.15405 12.8191 1.78052 12.4675 1.78052 11.7571V6.02222H15.843V11.7644C15.843 12.4675 15.4695 12.8191 14.803 12.8191H2.82788Z" fill="white"/>
</svg>
