<svg width="57" height="46" viewBox="0 0 57 46" fill="#fff" xmlns="http://www.w3.org/2000/svg">
<path d="M8.14925 45.7706H48.3362C53.6202 45.7706 56.4163 42.9508 56.4163 37.7379V8.972C56.4163 3.75906 53.6202 0.963037 48.3362 0.963037H8.14925C2.88893 0.963037 0.0692051 3.75906 0.0692051 8.972V37.7379C0.0692051 42.9745 2.88893 45.7706 8.14925 45.7706ZM5.49539 9.56437C5.49539 7.40812 6.58537 6.38922 8.64685 6.38922H47.8386C49.8764 6.38922 50.9901 7.40812 50.9901 9.56437V33.5439L39.9244 23.1891C38.8819 22.2413 37.6497 21.7674 36.3939 21.7674C35.0906 21.7674 33.9296 22.1939 32.8396 23.1654L22.1531 32.7145L17.7932 28.7811C16.798 27.9044 15.708 27.4305 14.5943 27.4305C13.4807 27.4305 12.5329 27.8807 11.5614 28.7574L5.49539 34.1362V9.56437ZM19.0964 23.971C22.2479 23.971 24.8543 21.3883 24.8543 18.1894C24.8543 15.038 22.2479 12.4078 19.0964 12.4078C15.9213 12.4078 13.3148 15.038 13.3148 18.1894C13.3148 21.3883 15.9213 23.971 19.0964 23.971Z" fill="white"/>
</svg>
