<svg width="59" height="46" viewBox="0 0 59 46" fill="none" xmlns="http://www.w3.org/2000/svg">
<path d="M8.38184 45.8828H50.6182C55.7451 45.8828 58.2842 43.3438 58.2842 38.3145V8.50488C58.2842 3.47559 55.7451 0.936523 50.6182 0.936523H8.38184C3.2793 0.936523 0.71582 3.45117 0.71582 8.50488V38.3145C0.71582 43.3682 3.2793 45.8828 8.38184 45.8828ZM19.0264 24.0078C15.7061 24.0078 12.9961 21.2979 12.9961 17.9775C12.9961 14.6816 15.7061 11.9473 19.0264 11.9473C22.3223 11.9473 25.0322 14.6816 25.0322 17.9775C25.0322 21.2979 22.3223 24.0078 19.0264 24.0078ZM8.43066 41.9521C6.0625 41.9521 4.64648 40.5361 4.64648 38.1436V36.6543L12.1416 30.1113C13.2158 29.1592 14.3877 28.6709 15.4619 28.6709C16.6582 28.6709 17.9033 29.1592 18.9775 30.1602L23.6406 34.3594L35.3105 24.0078C36.5068 22.9336 37.8496 22.4453 39.2412 22.4453C40.584 22.4453 41.9756 22.958 43.123 24.0322L54.3535 34.4326V38.1924C54.3535 40.5361 52.9131 41.9521 50.5938 41.9521H8.43066Z" fill="#1F1F1F"/>
</svg>
