<svg width="24" height="24" viewBox="0 0 24 24" fill="none" xmlns="http://www.w3.org/2000/svg">
<circle cx="12" cy="12" r="12" fill="#FF9C64"/>
<path d="M18.829 11.5874L16.7668 9.52509C16.539 9.2973 16.1696 9.2973 15.9418 9.52509C15.7141 9.75288 15.7141 10.1223 15.9418 10.3501L17.0085 11.4167H12.5833V6.9917L13.6498 8.05817C13.8776 8.28596 14.247 8.28596 14.4748 8.05817C14.7026 7.83038 14.7026 7.46098 14.4748 7.2332L12.4124 5.17084C12.1846 4.94305 11.8152 4.94305 11.5875 5.17084L9.52509 7.23334C9.2973 7.46113 9.2973 7.83052 9.52509 8.05831C9.75288 8.2861 10.1223 8.2861 10.3501 8.05831L11.4167 6.9917V11.4167H6.9917L8.05817 10.3502C8.28596 10.1224 8.28596 9.75302 8.05817 9.52523C7.83038 9.29744 7.46099 9.29744 7.2332 9.52523L5.17084 11.5874C4.94305 11.8152 4.94305 12.1846 5.17084 12.4124L7.23334 14.4749C7.46113 14.7027 7.83053 14.7027 8.05832 14.4749C8.28611 14.2471 8.28611 13.8777 8.05832 13.6499L6.9917 12.5833H11.4167V17.0084L10.3502 15.9418C10.1224 15.714 9.75303 15.714 9.52524 15.9418C9.29745 16.1696 9.29745 16.539 9.52524 16.7668L11.5876 18.8292C11.8154 19.0569 12.1848 19.0569 12.4126 18.8292L14.4751 16.7668C14.7029 16.539 14.7029 16.1696 14.4751 15.9418C14.2473 15.714 13.8779 15.714 13.6501 15.9418L12.5833 17.0083V12.5833H17.0083L15.9418 13.6498C15.7141 13.8776 15.7141 14.247 15.9418 14.4748C16.1696 14.7026 16.539 14.7026 16.7668 14.4748L18.8292 12.4123C19.057 12.1848 19.057 11.8152 18.829 11.5874Z" fill="white"/>
</svg>
