<svg width="11" height="11" viewBox="0 0 11 11" fill="none" xmlns="http://www.w3.org/2000/svg">
<path d="M5.5498 10.894C5.91895 10.894 6.21777 10.5894 6.21777 10.2437V6.57568H9.79199C10.1494 6.57568 10.4541 6.27686 10.4541 5.90771C10.4541 5.54443 10.1494 5.23975 9.79199 5.23975H6.21777V1.57178C6.21777 1.22021 5.91895 0.921387 5.5498 0.921387C5.18652 0.921387 4.88184 1.22021 4.88184 1.57178V5.23975H1.30762C0.961914 5.23975 0.645508 5.54443 0.645508 5.90771C0.645508 6.27686 0.961914 6.57568 1.30762 6.57568H4.88184V10.2437C4.88184 10.5894 5.18652 10.894 5.5498 10.894Z" fill="white"/>
</svg>
