<svg width="17" height="13" viewBox="0 0 17 13" fill="none" xmlns="http://www.w3.org/2000/svg">
<path d="M13.3408 6.91943C14.9814 6.91943 16.3584 5.54834 16.3584 3.90186C16.3584 2.24951 14.9932 0.884277 13.3408 0.884277C11.6885 0.884277 10.3232 2.24951 10.3232 3.90186C10.3232 5.56006 11.6885 6.91943 13.3408 6.91943ZM0.338867 10.1714C0.338867 11.4253 1.00098 12.0815 2.27246 12.0815H12.1396C13.2705 12.0815 13.9268 11.4253 13.9268 10.1714V7.70459C13.7393 7.73975 13.54 7.75732 13.3408 7.75732C13.1416 7.75732 12.9482 7.73975 12.7607 7.70459V10.0718C12.7607 10.6343 12.4561 10.9155 11.9229 10.9155H2.34277C1.80371 10.9155 1.51074 10.6343 1.51074 10.0659V5.47803H9.87793C9.71387 5.16748 9.59668 4.82178 9.54395 4.45264H1.51074V2.98193C1.51074 2.44287 1.80371 2.16162 2.3252 2.16162H3.51465C3.93066 2.16162 4.17676 2.26123 4.51074 2.53076L4.83887 2.80615C5.24902 3.13428 5.56543 3.25146 6.18066 3.25146H9.57324C9.62598 2.84717 9.74902 2.44287 9.94824 2.08545H6.49121C6.06934 2.08545 5.81738 1.98584 5.48926 1.71631L5.16113 1.44678C4.74512 1.11279 4.44043 0.995605 3.8252 0.995605H2.09082C0.995117 0.995605 0.338867 1.64014 0.338867 2.87646V10.1714ZM13.3408 5.87646C13.1182 5.87646 12.9189 5.70654 12.9189 5.47217V4.30029H11.8291C11.6123 4.30029 11.4307 4.11865 11.4248 3.90186C11.4307 3.6792 11.6123 3.49756 11.8291 3.49756H12.9189V2.33154C12.9189 2.09131 13.1182 1.93311 13.3408 1.93311C13.5693 1.93311 13.7627 2.09131 13.7627 2.33154V3.49756H14.8525C15.0752 3.49756 15.2568 3.6792 15.2568 3.90186C15.2568 4.11865 15.0752 4.30029 14.8525 4.30029H13.7627V5.47217C13.7627 5.70654 13.5693 5.87646 13.3408 5.87646Z" fill="white"/>
</svg>
