<svg width="9" height="10" viewBox="0 0 9 10" fill="none" xmlns="http://www.w3.org/2000/svg">
<path d="M4.70581 9.15479C5.06226 9.15479 5.35522 8.85205 5.35522 8.52002V5.61475H8.2019C8.5437 5.61475 8.84155 5.32178 8.84155 4.96533C8.84155 4.61377 8.5437 4.31592 8.2019 4.31592H5.35522V1.41064C5.35522 1.06885 5.06226 0.775879 4.70581 0.775879C4.35425 0.775879 4.06128 1.06885 4.06128 1.41064V4.31592H1.2146C0.882568 4.31592 0.574951 4.61377 0.574951 4.96533C0.574951 5.32178 0.882568 5.61475 1.2146 5.61475H4.06128V8.52002C4.06128 8.85205 4.35425 9.15479 4.70581 9.15479Z" fill="#4294FF"/>
</svg>
