<svg width="59" height="46" viewBox="0 0 59 46" fill="#fff" xmlns="http://www.w3.org/2000/svg">
<path d="M3.79415 16.059C5.45281 16.059 6.51909 14.969 6.51909 13.3103V9.51912C6.51909 7.36287 7.60907 6.32028 9.67054 6.32028H48.8149C50.8527 6.32028 51.9901 7.36287 51.9901 9.51912V13.3103C51.9901 14.969 53.0564 16.059 54.6913 16.059C56.35 16.059 57.3926 14.969 57.3926 13.3103V8.92674C57.3926 3.69012 54.5965 0.89409 49.3125 0.89409H9.17295C3.91262 0.89409 1.0929 3.69012 1.0929 8.92674V13.3103C1.0929 14.969 2.15918 16.059 3.79415 16.059ZM29.219 33.309C30.8777 33.309 31.8255 32.2191 31.8255 30.4182V17.1016H36.5171C37.8204 17.1016 38.6497 16.3196 38.6497 15.0638C38.6497 13.8079 37.8204 13.0497 36.5171 13.0497H21.992C20.6888 13.0497 19.8358 13.8079 19.8358 15.0638C19.8358 16.3196 20.6888 17.1016 21.992 17.1016H26.6363V30.4182C26.6363 32.1954 27.5604 33.309 29.219 33.309ZM3.79415 26.4848C5.83193 26.4848 7.49059 24.8025 7.49059 22.7647C7.49059 20.7506 5.83193 19.092 3.79415 19.092C1.75636 19.092 0.0977047 20.7506 0.0977047 22.7647C0.0977047 24.8025 1.75636 26.4848 3.79415 26.4848ZM54.6913 26.4848C56.7291 26.4848 58.3878 24.8025 58.3878 22.7647C58.3878 20.7506 56.7291 19.092 54.6913 19.092C52.6535 19.092 51.0186 20.7269 51.0186 22.7647C51.0186 24.8025 52.6535 26.4848 54.6913 26.4848ZM9.17295 45.512H49.3125C54.5965 45.512 57.3926 42.6923 57.3926 37.4794V32.2902C57.3926 30.6078 56.3263 29.5415 54.6913 29.5415C53.0327 29.5415 51.9901 30.6078 51.9901 32.2902V36.887C51.9901 39.0433 50.8527 40.0859 48.8149 40.0859H9.67054C7.60907 40.0859 6.51909 39.0433 6.51909 36.887V32.2902C6.51909 30.6078 5.45281 29.5415 3.79415 29.5415C2.15918 29.5415 1.0929 30.6078 1.0929 32.2902V37.4794C1.0929 42.716 3.91262 45.512 9.17295 45.512Z" fill="white"/>
</svg>
