<svg width="53" height="53" viewBox="0 0 53 53" fill="#fff" xmlns="http://www.w3.org/2000/svg">
<path d="M24.513 36.5157L28.5175 32.5112C25.9584 32.2506 23.968 31.3501 22.5937 29.9758C18.684 26.0661 18.684 20.5926 22.57 16.7065L30.5552 8.72129C34.4649 4.83528 39.9148 4.83528 43.8245 8.72129C47.7579 12.6547 47.7342 18.1283 43.8482 22.0143L40.3176 25.5448C41.147 27.4641 41.4787 29.881 40.9337 31.9899L47.5684 25.3553C53.5395 19.4552 53.5395 10.996 47.5447 5.00115C41.5498 -0.993724 33.138 -0.946334 27.2142 4.97745L18.8262 13.3418C12.9024 19.2893 12.8787 27.7248 18.8735 33.696C20.1531 34.9992 22.025 36.0418 24.513 36.5157ZM27.9725 16.1379L23.968 20.166C26.5271 20.4267 28.5175 21.3034 29.8918 22.6777C33.8015 26.5874 33.8015 32.0847 29.9155 35.947L21.9302 43.9323C18.0205 47.8183 12.5469 47.842 8.66093 43.9323C4.72754 39.9989 4.75124 34.549 8.63724 30.663L12.1678 27.1324C11.3385 25.2131 11.0068 22.7725 11.5517 20.6636L4.89341 27.2983C-1.05407 33.2221 -1.05407 41.6575 4.9171 47.6524C10.9357 53.6473 19.3474 53.6236 25.2712 47.6761L33.6356 39.3117C39.5831 33.3642 39.6068 24.9525 33.6119 18.9576C32.3324 17.6544 30.4605 16.6118 27.9725 16.1379Z" fill="white"/>
</svg>
